<svg width="375" height="78" viewBox="0 0 375 78" fill="none" xmlns="http://www.w3.org/2000/svg">
<mask id="mask0_2017_4544" style="mask-type:luminance" maskUnits="userSpaceOnUse" x="2" y="8" width="30" height="69">
<path d="M2.33685 8H31.7484V76.724H2.33685V8Z" fill="white"/>
</mask>
<g mask="url(#mask0_2017_4544)">
<mask id="mask1_2017_4544" style="mask-type:luminance" maskUnits="userSpaceOnUse" x="-65" y="-8" width="131" height="123">
<path d="M-64.988 33.6979L31.7223 -7.07812L65.9905 73.7604L-30.725 114.536L-64.988 33.6979Z" fill="white"/>
</mask>
<g mask="url(#mask1_2017_4544)">
<mask id="mask2_2017_4544" style="mask-type:luminance" maskUnits="userSpaceOnUse" x="-26" y="-8" width="92" height="106">
<path d="M-25.3827 17L31.7223 -7.07812L65.9905 73.7604L8.88553 97.8385L-25.3827 17Z" fill="white"/>
</mask>
<g mask="url(#mask2_2017_4544)">
<mask id="mask3_2017_4544" style="mask-type:luminance" maskUnits="userSpaceOnUse" x="-66" y="-8" width="132" height="123">
<path d="M-65.129 33.7604L31.5813 -7.01562L65.8495 73.8229L-30.866 114.599L-65.129 33.7604Z" fill="white"/>
</mask>
<g mask="url(#mask3_2017_4544)">
<path d="M26.8082 66.6043C25.1684 63.0366 23.4503 59.5314 21.6643 56.0366C19.6015 52.0158 17.6066 48.0106 15.7005 43.9116C15.6744 43.8491 15.6431 43.7866 15.6065 43.7189C15.5804 43.6512 15.5491 43.5835 15.5178 43.5158C13.4759 39.1408 11.5593 34.7345 9.6532 30.297C8.02909 26.4168 6.89064 23.2502 5.9402 19.1825C5.76264 18.3752 3.6372 8.69808 2.77031 8.59912C2.61364 8.73975 4.71298 18.8127 4.82786 19.422C5.68953 23.5679 6.86453 26.8543 8.48864 30.7918C10.3634 35.2502 12.2591 39.6981 14.2905 44.0887C14.3219 44.1564 14.3532 44.2189 14.3845 44.2866C14.4159 44.3543 14.442 44.4168 14.4733 44.4845C16.3951 48.5835 18.437 52.6043 20.5311 56.6252C22.338 60.0939 24.0718 63.5679 25.7742 67.0887C26.051 67.6668 30.6726 77.8022 31.174 77.7814C31.6805 77.3075 27.0798 67.2085 26.8082 66.6095V66.6043Z" fill="black"/>
</g>
</g>
</g>
</g>
<mask id="mask4_2017_4544" style="mask-type:luminance" maskUnits="userSpaceOnUse" x="1" y="12" width="39" height="40">
<path d="M1 12H39.7698V52H1V12Z" fill="white"/>
</mask>
<g mask="url(#mask4_2017_4544)">
<mask id="mask5_2017_4544" style="mask-type:luminance" maskUnits="userSpaceOnUse" x="-65" y="-8" width="131" height="123">
<path d="M-64.988 33.6979L31.7224 -7.07812L65.9906 73.7604L-30.725 114.536L-64.988 33.6979Z" fill="white"/>
</mask>
<g mask="url(#mask5_2017_4544)">
<mask id="mask6_2017_4544" style="mask-type:luminance" maskUnits="userSpaceOnUse" x="-26" y="-8" width="92" height="106">
<path d="M-25.3826 17L31.7224 -7.07812L65.9906 73.7604L8.88559 97.8385L-25.3826 17Z" fill="white"/>
</mask>
<g mask="url(#mask6_2017_4544)">
<mask id="mask7_2017_4544" style="mask-type:luminance" maskUnits="userSpaceOnUse" x="-66" y="-8" width="132" height="123">
<path d="M-65.129 33.7604L31.5814 -7.01562L65.8496 73.8229L-30.866 114.599L-65.129 33.7604Z" fill="white"/>
</mask>
<g mask="url(#mask7_2017_4544)">
<path d="M23.4504 21.1354C12.9224 28.7396 9.15194 31.6198 -3.43362 35.8437C-3.55895 35.8854 -3.68428 35.9271 -3.80962 35.9739C-3.9454 36.0156 -4.07595 36.0573 -4.20651 36.0989C-6.57217 36.8854 -8.93784 37.6198 -11.3192 38.3437C-18.8183 40.6823 -26.2547 43.625 -33.7486 46.1093C-35.9158 46.8125 -38.0674 47.4791 -40.2555 48.0989C-47.1488 49.9218 -48.5797 49.9791 -55.0344 50.5573C-55.165 50.5729 -55.3112 50.5677 -55.3738 50.6875C-55.0135 52.5885 -40.642 49.3698 -39.9526 49.1979C-37.7384 48.6041 -35.566 47.9531 -33.3778 47.2604C-25.8631 44.8333 -18.4318 41.9218 -10.9327 39.625C-8.54095 38.9062 -6.15439 38.1718 -3.77828 37.3906C-3.64773 37.3437 -3.51195 37.2968 -3.3814 37.25C-3.25606 37.2135 -3.12551 37.1718 -3.00017 37.1302C9.64283 32.8593 13.6274 29.8437 24.124 22.0573C26.1659 20.5416 28.2183 19.0468 30.2915 17.5677C31.0278 17.0937 39.0909 12.7291 39.0648 12.4843C38.5322 11.8385 30.3072 16.3854 29.7118 16.7396C27.6073 18.1823 25.5236 19.6458 23.4504 21.1354Z" fill="black"/>
</g>
</g>
</g>
</g>
<mask id="mask8_2017_4544" style="mask-type:luminance" maskUnits="userSpaceOnUse" x="1" y="65" width="54" height="12">
<path d="M1 65.3335H54.4756V76.7241H1V65.3335Z" fill="white"/>
</mask>
<g mask="url(#mask8_2017_4544)">
<mask id="mask9_2017_4544" style="mask-type:luminance" maskUnits="userSpaceOnUse" x="-65" y="-8" width="131" height="123">
<path d="M-64.988 33.6979L31.7224 -7.07812L65.9906 73.7604L-30.725 114.536L-64.988 33.6979Z" fill="white"/>
</mask>
<g mask="url(#mask9_2017_4544)">
<mask id="mask10_2017_4544" style="mask-type:luminance" maskUnits="userSpaceOnUse" x="-26" y="-8" width="92" height="106">
<path d="M-25.3826 17L31.7224 -7.07812L65.9906 73.7604L8.88559 97.8385L-25.3826 17Z" fill="white"/>
</mask>
<g mask="url(#mask10_2017_4544)">
<mask id="mask11_2017_4544" style="mask-type:luminance" maskUnits="userSpaceOnUse" x="-66" y="-8" width="132" height="123">
<path d="M-65.129 33.7604L31.5814 -7.01562L65.8496 73.8229L-30.866 114.599L-65.129 33.7604Z" fill="white"/>
</mask>
<g mask="url(#mask11_2017_4544)">
<path d="M40.198 71.3282C30.9965 75.1771 21.8524 79.0313 12.5098 82.5469C12.421 82.5782 12.3375 82.6094 12.2539 82.6459C12.1651 82.6771 12.0711 82.7084 11.9824 82.7448C4.48848 85.573 -2.92185 88.0834 -10.5933 90.4063C-13.0739 91.1667 -15.3821 92.0209 -17.7791 93C-18.2647 93.2032 -30.6727 98.2865 -30.6989 98.5469C-30.1035 99.3282 -18.0506 94.3386 -17.3509 94.0573C-14.9747 93.1354 -12.6926 92.3125 -10.2486 91.5834C-2.53541 89.3125 4.93759 86.8282 12.4628 84.0105C12.5516 83.9792 12.6404 83.9427 12.7291 83.9063C12.8179 83.8802 12.9067 83.8438 12.9903 83.8125C22.3119 80.2761 31.5135 76.3646 40.6524 72.3802C41.3521 72.073 53.922 66.7084 53.9377 66.099C53.4625 65.6667 40.9187 71.0313 40.198 71.3282Z" fill="black"/>
</g>
</g>
</g>
</g>
<mask id="mask12_2017_4544" style="mask-type:luminance" maskUnits="userSpaceOnUse" x="0" y="12" width="21" height="65">
<path d="M0 12H20.0533V76.724H0V12Z" fill="white"/>
</mask>
<g mask="url(#mask12_2017_4544)">
<mask id="mask13_2017_4544" style="mask-type:luminance" maskUnits="userSpaceOnUse" x="-66" y="-8" width="131" height="123">
<path d="M-65.988 33.6979L30.7224 -7.07812L64.9906 73.7604L-31.725 114.536L-65.988 33.6979Z" fill="white"/>
</mask>
<g mask="url(#mask13_2017_4544)">
<mask id="mask14_2017_4544" style="mask-type:luminance" maskUnits="userSpaceOnUse" x="-27" y="-8" width="92" height="106">
<path d="M-26.3826 17L30.7224 -7.07812L64.9906 73.7604L7.88559 97.8385L-26.3826 17Z" fill="white"/>
</mask>
<g mask="url(#mask14_2017_4544)">
<mask id="mask15_2017_4544" style="mask-type:luminance" maskUnits="userSpaceOnUse" x="-67" y="-8" width="132" height="123">
<path d="M-66.129 33.7604L30.5814 -7.01562L64.8496 73.8229L-31.866 114.599L-66.129 33.7604Z" fill="white"/>
</mask>
<g mask="url(#mask15_2017_4544)">
<path d="M14.4917 77.1614C14.0739 76.2604 13.6562 75.3593 13.2436 74.4531C9.67683 66.8593 5.73928 59.8698 1.7965 52.5104C1.75994 52.4323 1.71816 52.3593 1.67116 52.2864C1.63461 52.2083 1.59283 52.1302 1.55105 52.052C-1.25328 46.8229 -3.73906 41.7916 -6.10995 36.3385C-7.72361 32.5052 -9.12839 28.6458 -10.5697 24.75C-10.7995 24.1406 -15.0504 12.4895 -15.9329 12.5937C-16.2097 12.8541 -11.8178 24.6354 -11.6403 25.1354C-10.2564 29.0729 -8.86728 32.9687 -7.2745 36.8281C-4.9245 42.3229 -2.44917 47.427 0.355164 52.6875C0.396942 52.7656 0.443942 52.8437 0.485719 52.9218C0.522275 52.9948 0.564053 53.0729 0.605831 53.151C4.55383 60.4739 8.52794 67.427 12.1626 74.9583C12.5961 75.8541 13.0243 76.75 13.4577 77.6458C13.7763 78.302 19.4633 90.7187 19.9228 90.6562C20.7166 90.2239 14.8051 77.8489 14.4917 77.1614Z" fill="black"/>
</g>
</g>
</g>
</g>
<mask id="mask16_2017_4544" style="mask-type:luminance" maskUnits="userSpaceOnUse" x="19" y="0" width="33" height="76">
<path d="M19.3796 0.333496H51.4649V75.7241H19.3796V0.333496Z" fill="white"/>
</mask>
<g mask="url(#mask16_2017_4544)">
<mask id="mask17_2017_4544" style="mask-type:luminance" maskUnits="userSpaceOnUse" x="-64" y="-9" width="131" height="123">
<path d="M-63.988 32.6979L32.7224 -8.07812L66.9906 72.7604L-29.725 113.536L-63.988 32.6979Z" fill="white"/>
</mask>
<g mask="url(#mask17_2017_4544)">
<mask id="mask18_2017_4544" style="mask-type:luminance" maskUnits="userSpaceOnUse" x="-25" y="-9" width="92" height="106">
<path d="M-24.3826 16L32.7224 -8.07812L66.9906 72.7604L9.88559 96.8385L-24.3826 16Z" fill="white"/>
</mask>
<g mask="url(#mask18_2017_4544)">
<mask id="mask19_2017_4544" style="mask-type:luminance" maskUnits="userSpaceOnUse" x="-65" y="-9" width="132" height="123">
<path d="M-64.129 32.7604L32.5814 -8.01562L66.8496 72.8229L-29.866 113.599L-64.129 32.7604Z" fill="white"/>
</mask>
<g mask="url(#mask19_2017_4544)">
<path d="M47.6527 65.4218C45.2505 57.1041 42.7438 48.8125 38.1117 41.4166C37.5112 40.4895 36.9054 39.5677 36.2996 38.6406C36.2422 38.5572 36.19 38.4739 36.1325 38.3906C36.0751 38.3072 36.0228 38.2187 35.9654 38.1354C31.1662 30.8541 29.0877 26.9218 25.5575 18.7604C24.7951 16.9479 24.2154 15.2447 23.6671 13.3697C23.4895 12.7291 20.7061 1.25516 19.6146 1.38016C19.5154 1.47391 22.4764 13.3177 22.5652 13.677C23.0978 15.6145 23.6775 17.3645 24.4452 19.2291C27.9284 27.4635 30.0173 31.5312 34.8322 38.875C34.8896 38.9635 34.9471 39.0468 35.0045 39.1302C35.0567 39.2187 35.1142 39.302 35.1664 39.3854C35.7722 40.3073 36.3832 41.2291 36.989 42.151C41.6054 49.4479 44.0442 57.5625 46.5613 65.7447C47.188 67.7864 47.8146 69.8229 48.4883 71.8489C48.6763 72.3333 50.8383 78.0729 51.371 77.9322C51.7417 77.7083 49.585 72.1562 49.397 71.5729C48.8173 69.5208 48.2376 67.4687 47.6527 65.4218Z" fill="black"/>
</g>
</g>
</g>
</g>
<mask id="mask20_2017_4544" style="mask-type:luminance" maskUnits="userSpaceOnUse" x="196" y="19" width="132" height="65">
<path d="M196 19H327.015V83.724H196V19Z" fill="white"/>
</mask>
<g mask="url(#mask20_2017_4544)">
<mask id="mask21_2017_4544" style="mask-type:luminance" maskUnits="userSpaceOnUse" x="179" y="-5" width="177" height="178">
<path d="M179.712 106.365L248.692 -4.70825L355.81 61.4636L286.83 172.537L179.712 106.365Z" fill="white"/>
</mask>
<g mask="url(#mask21_2017_4544)">
<mask id="mask22_2017_4544" style="mask-type:luminance" maskUnits="userSpaceOnUse" x="179" y="-5" width="177" height="178">
<path d="M179.712 106.365L248.692 -4.70825L355.81 61.4636L286.83 172.537L179.712 106.365Z" fill="white"/>
</mask>
<g mask="url(#mask22_2017_4544)">
<path d="M315.249 126.172C315.213 126.234 315.161 126.292 315.108 126.344C314.941 126.505 314.717 126.589 314.482 126.583C313.657 126.557 312.931 126.203 312.315 125.526C308.393 121.208 309.646 102.495 310.972 82.6823C312.085 66.0573 313.343 47.2136 310.351 43.9219C310.121 43.6667 309.923 43.5938 309.771 43.5678C309.432 43.9167 308.252 46.0521 307.541 58.9636C307.118 66.7969 306.91 77.448 306.936 90.6251C306.972 113.068 307.677 135.333 307.682 135.557C307.688 135.797 307.599 136.026 307.427 136.198C307.259 136.365 307.024 136.458 306.784 136.453C305.933 136.422 305.176 136.052 304.533 135.344C302.168 132.724 301.525 124.979 301.713 114.583C301.416 120.802 301.087 126.375 300.81 130.745C300.894 139.427 300.512 140.526 300.001 141.031C299.797 141.24 299.525 141.349 299.243 141.339C299.008 141.333 298.784 141.229 298.622 141.052C298.465 140.875 298.387 140.646 298.403 140.406C298.413 140.318 298.695 136.641 299.071 130.74C299.003 124.396 298.711 115.609 298.423 106.984C297.906 91.3594 297.322 73.6563 297.452 58.8855C297.51 52.1146 297.718 46.9271 298.021 42.9428C297.452 41.1563 296.852 40.0469 296.267 39.3959C295.875 38.9584 295.489 38.7344 295.086 38.7084C294.925 38.8282 294.173 39.6511 293.614 44.698C293.227 48.2136 292.992 53.0573 292.904 59.5105C292.742 71.4532 293.112 86.5053 293.468 101.057C293.739 112.162 293.995 122.646 293.979 130.594C293.953 142.943 293.248 144.672 292.595 145.318C292.35 145.563 292.042 145.688 291.718 145.677C290.752 145.646 290.48 144.453 290.324 143.74C290.146 142.938 289.974 141.818 289.812 140.323C289.258 143.141 288.444 145.094 287.352 146.255C286.491 147.172 285.451 147.62 284.271 147.583C283.467 147.563 282.757 147.208 282.151 146.542C280.49 144.708 279.571 140.375 279.31 132.839C278.772 138.146 278.26 138.641 277.942 138.953C277.717 139.167 277.43 139.281 277.138 139.276C276.908 139.266 276.689 139.167 276.527 139C276.37 138.833 276.286 138.604 276.297 138.375C276.307 138.083 277.399 108.979 277.498 80.0417C277.561 63.0626 277.273 49.4636 276.647 39.625C276.276 33.8073 275.78 29.2709 275.179 26.1407C274.516 22.6875 273.858 21.6719 273.566 21.3803C273.367 21.8125 272.991 23.0417 272.709 26.4948C272.469 29.4948 272.328 33.6094 272.291 39.073C272.218 49.2761 272.5 62.3646 272.798 76.224C273.117 91.1198 273.446 106.531 273.32 118.5C273.122 136.49 271.952 140.047 270.829 141.156C270.406 141.573 269.968 141.646 269.675 141.641C268.824 141.609 268.73 140.724 268.657 140.073C268.605 139.547 268.547 138.797 268.5 137.776C268.406 135.917 268.317 133.208 268.234 129.5C268.077 122.542 267.941 112.787 267.8 102.458C267.591 86.8178 267.346 69.099 266.944 54.9428C266.432 36.9063 265.821 31.2761 265.419 29.6459C263.743 31.5938 261.1 42.2032 261.544 90.3073C261.805 118.26 263.006 145.635 263.017 145.906C263.027 146.146 262.938 146.385 262.766 146.552C262.599 146.724 262.364 146.818 262.124 146.813C261.273 146.787 261.21 146 261.132 145.005C261.079 144.354 261.027 143.38 260.97 142.109C260.865 139.766 260.756 136.365 260.625 131.714C260.39 123.021 260.129 111.193 259.857 98.6719C259.246 70.5365 258.489 35.8803 257.758 30.4011C257.648 30.474 257.523 30.573 257.392 30.7084C256.155 32.0053 254.463 36.2761 253.622 49.3907C253.758 57.7084 253.507 68.7553 253.241 80.4532C253.236 80.5157 253.236 80.5782 253.236 80.6407C253.272 82.5157 253.319 84.4584 253.377 86.474C254.082 111.396 255.92 135.464 255.941 135.703C255.956 135.948 255.873 136.193 255.7 136.37C255.533 136.547 255.293 136.646 255.048 136.635C252.969 136.573 251.512 133.385 251.136 118.052C250.886 107.599 251.194 93.9063 251.497 80.6407C251.251 68.5938 251.35 58.5 251.799 50.5782C251.826 50.099 251.852 49.625 251.883 49.1667C251.82 45.5313 251.685 42.724 251.47 40.6042C251.194 37.8282 250.833 36.8698 250.656 36.5521C250.389 36.7969 249.679 37.823 249.126 41.974C248.661 45.4636 248.389 50.3646 248.29 56.9636C248.118 69.1563 248.598 85.1563 249.026 99.2709C249.335 109.453 249.627 119.078 249.648 126.292C249.684 137.495 249.063 139.057 248.415 139.698C248.175 139.938 247.867 140.068 247.549 140.057C246.384 140.021 245.888 138.542 245.528 136.948C245.392 136.359 245.266 135.672 245.141 134.88C244.593 138.208 243.757 140.635 242.546 141.885C241.835 142.625 241 142.99 240.07 142.958C239.679 142.948 239.094 142.807 238.566 142.224C235.605 138.958 236.53 123.333 238.279 98.1042C239.167 85.3438 240.081 72.1511 240.164 61.3438C240.253 49.4323 239.261 42.25 237.209 39.9896C236.921 39.6771 236.624 39.4688 236.3 39.375C236.034 40.2969 235.678 43.2709 235.59 52.448C235.517 59.974 235.626 69.7032 235.741 80.0053C235.882 92.3126 236.028 105.037 235.866 115.031C235.621 130.13 234.77 133.01 233.887 133.875C233.548 134.208 233.187 134.266 232.947 134.26C231.777 134.224 231.506 132.703 231.328 131.146C231.161 129.698 231.062 127.604 231.025 124.745C230.952 119.417 231.104 111.979 231.26 104.109C231.506 91.9948 231.783 78.2709 231.365 67.5886C231.146 61.7969 230.749 57.5157 230.153 54.5C229.793 52.6615 229.407 51.5678 229.067 50.9115C229.072 56.3646 229.057 73.1459 228.822 89.9584C228.247 131.5 226.957 132.75 226.341 133.349C226.127 133.552 225.855 133.662 225.573 133.656C223.861 133.599 222.743 131.401 222.487 120.625C222.31 113.276 222.56 103.583 222.832 93.323C223.119 82.1407 223.422 70.5782 223.145 61.8542C222.999 57.1771 222.701 53.7396 222.242 51.3438C221.813 49.1146 221.328 48.3334 221.061 48.0625C220.738 48.8282 220.121 51.4219 219.693 60.2188C219.39 66.3698 219.223 74.6667 219.187 84.8751C219.129 102.271 219.484 119.417 219.49 119.589C219.495 119.823 219.401 120.052 219.234 120.219C219.061 120.391 218.832 120.479 218.591 120.474C216.925 120.422 216.163 118.031 215.792 111.656C215.51 106.818 215.51 100.412 215.505 93.6355C215.505 86.0001 215.5 78.1042 215.082 72.1146C214.649 65.8334 213.865 63.7553 213.39 63.0678C213.139 64.3073 212.779 67.7657 212.596 77.349C212.45 85.1094 212.466 94.1615 212.476 100.776C212.481 103.328 212.487 105.531 212.476 107.073C212.466 109.88 212.466 109.88 212.152 110.182C211.98 110.344 211.75 110.438 211.515 110.427C210.68 110.401 210.486 109.495 210.309 108.693C210.168 108.037 210.006 107.089 209.813 105.802C209.452 103.412 209.035 100.104 208.591 96.599C207.99 91.8907 207.311 86.5469 206.638 82.2917C205.974 78.1198 205.494 76.1615 205.191 75.2396C205.097 75.8021 205.029 76.7969 205.102 78.5521C205.207 80.8438 205.515 83.6876 205.839 86.698C206.69 94.5469 207.134 99.6042 205.943 101.526C205.865 101.646 205.781 101.755 205.692 101.854C205.337 102.24 204.878 102.432 204.371 102.417C204 102.406 203.677 102.156 203.567 101.802L198.486 85.0469C198.444 85.1198 198.397 85.1876 198.34 85.2501C198.12 85.4896 197.828 85.6146 197.504 85.6094C197.024 85.5938 196.648 85.1928 196.663 84.7136C196.674 84.4584 196.789 84.2344 196.966 84.0834C196.982 83.6459 196.851 82.7084 196.773 82.1198C196.527 80.3386 196.428 79.4532 196.914 78.9167C197.123 78.6876 197.415 78.5626 197.723 78.573C198.094 78.5834 198.418 78.8334 198.528 79.1876L204.758 99.7396C204.883 99.0886 204.972 98.0105 204.92 96.224C204.836 93.5678 204.47 90.1719 204.115 86.8855C203.275 79.1771 202.867 74.7448 204.147 73.3698C204.45 73.0417 204.857 72.8698 205.29 72.8855C206.22 72.9115 206.664 73.9219 207.123 75.6615C207.463 76.9428 207.818 78.7396 208.215 81.1667C208.941 85.5834 209.672 91.323 210.314 96.3803C210.45 97.4792 210.596 98.6042 210.737 99.7084C210.727 93.0261 210.721 84.2761 210.873 76.7969C211.16 62.4011 211.844 61.7344 212.299 61.2969C212.502 61.0938 212.774 60.9896 213.051 60.9948C216.821 61.1146 217.239 71.5365 217.244 93.6303C217.244 99.9948 217.249 106.005 217.479 110.698C217.526 111.62 217.583 112.443 217.641 113.172C217.536 106.531 217.411 95.6355 217.448 84.6615C217.484 74.3855 217.662 66.0469 217.97 59.8855C218.492 49.3855 219.281 47.2605 219.98 46.5678C220.315 46.2396 220.665 46.1823 220.9 46.1875C223.38 46.2657 224.539 50.7865 224.884 61.8021C225.161 70.5782 224.858 82.1615 224.566 93.3698C224.315 103.167 224.069 112.422 224.205 119.615C224.273 123.453 224.445 126.333 224.727 128.432C224.926 129.922 225.156 130.787 225.344 131.287C225.861 128.729 226.681 119.76 227.093 89.2709C227.37 69.1511 227.328 49.2813 227.328 49.0834C227.328 48.849 227.422 48.625 227.594 48.4636C227.762 48.2969 227.991 48.2084 228.226 48.2188C230.446 48.2865 231.365 51.6459 231.861 54.1667C232.472 57.2709 232.879 61.6407 233.104 67.5209C233.522 78.2553 233.245 92.0053 232.999 104.141C232.848 111.484 232.712 118.417 232.749 123.599C232.785 127.875 232.942 130.162 233.104 131.38C233.501 129.537 233.966 125.156 234.133 114.833C234.289 104.891 234.143 92.2501 234.007 80.0209C233.887 69.4844 233.772 59.5365 233.856 51.9219C233.986 40.0105 234.545 38.4896 235.156 37.8907C235.376 37.6771 235.658 37.5625 235.945 37.573C236.911 37.6042 237.773 38.0261 238.498 38.8282C239.459 39.8855 240.175 41.6615 240.702 44.0157C240.875 40.7448 241.318 38.6771 242.112 37.8542C242.551 37.4011 243.026 37.3178 243.345 37.3282C244.154 37.3542 244.222 38.1823 244.243 38.4532C244.259 38.6771 244.274 39 244.29 39.4375C244.316 40.2344 244.342 41.4115 244.358 43.0365C244.394 46.1146 244.415 50.5573 244.441 55.698C244.488 65.4792 244.546 77.7188 244.734 89.8751C245.601 103.141 246.269 115.896 245.945 125.563C246.018 126.609 246.092 127.594 246.17 128.51C246.629 133.912 247.12 136.38 247.46 137.505C247.705 136.099 247.94 132.938 247.909 125.932C247.878 118.787 247.59 109.328 247.287 99.323C246.885 85.8803 246.421 70.6459 246.535 58.6876C246.703 40.3698 248.16 36.5886 249.413 35.3438C249.925 34.8282 250.457 34.7344 250.818 34.7448C251.784 34.7761 252.504 35.5782 252.98 38.6303C253.747 33.9271 254.792 30.9115 256.134 29.5105C256.808 28.8125 257.57 28.4688 258.4 28.4948C259.319 28.5209 259.413 29.4844 259.554 30.9375C259.654 31.9896 259.758 33.5625 259.868 35.6094C260.04 39.0209 260.223 43.7553 260.416 50.0417C261.351 33.1407 263.059 29.5573 264.27 28.3386C264.845 27.7553 265.429 27.6459 265.816 27.6563C266.798 27.6875 267.064 28.849 267.294 30.2448C267.487 31.4323 267.67 33.1875 267.837 35.4688C268.14 39.5886 268.401 45.4219 268.636 53.2969C269.064 67.7136 269.32 86.1563 269.539 102.432C269.753 117.979 269.957 132.813 270.26 138.287C270.485 137.375 270.73 135.969 270.944 133.802C271.289 130.276 271.498 125.417 271.576 118.953C271.717 106.943 271.383 91.3438 271.059 76.2605C270.761 62.3646 270.479 49.2448 270.552 39.0053C270.662 23.8073 271.539 20.8594 272.469 19.9428C272.829 19.5886 273.205 19.5261 273.461 19.5313C273.973 19.5469 274.438 19.7813 274.85 20.2188C275.994 21.4428 277.618 25.0625 278.548 42.3438C279.086 52.4323 279.315 65.9271 279.227 82.4636C279.19 89.1407 279.106 95.7865 278.997 102.042C279.138 96.1928 279.268 89.3959 279.378 81.5001C279.749 54.9636 279.707 28.6771 279.707 28.4115C279.707 28.1771 279.801 27.9532 279.973 27.7917C280.14 27.625 280.37 27.5365 280.605 27.5469C281.336 27.5678 281.984 27.8907 282.537 28.5C283.582 29.6459 284.297 31.9115 284.72 35.4948C284.976 34.9323 285.269 34.474 285.603 34.1198C286.214 33.4636 286.982 33.1303 287.822 33.1563C288.287 33.1719 288.658 33.5521 288.663 34.0157C288.663 34.2813 288.846 60.7761 289.394 87.5157C289.593 97.2501 289.807 105.323 290.026 112.016C290.298 115.995 290.507 119.807 290.611 123.349C290.663 125.115 290.689 126.771 290.689 128.328C291.097 136.156 291.483 140.188 291.796 142.24C292.031 140.401 292.23 136.891 292.24 130.24C292.246 122.359 291.995 112.037 291.729 101.099C290.841 64.823 290.512 40.7969 293.838 37.5C294.298 37.0469 294.773 36.9636 295.092 36.974C296 37 296.831 37.4271 297.562 38.2344C297.839 38.5417 298.1 38.9115 298.356 39.3386C299.108 32.5834 300.183 30.5157 301.076 29.625C301.687 29.0157 302.314 28.9011 302.732 28.9167C303.51 28.9375 304.194 29.2761 304.774 29.9219C306.497 31.823 307.312 36.5469 307.348 45.0469C307.839 43.0469 308.299 42.5938 308.575 42.3178C308.993 41.8959 309.432 41.8178 309.724 41.8282C310.44 41.849 311.103 42.1719 311.636 42.7553C315.129 46.599 314.007 63.3751 312.706 82.7969C311.521 100.51 310.173 120.589 313.604 124.365C313.631 124.391 313.651 124.417 313.678 124.438C313.792 119.938 314.21 104.037 314.659 88.2813C314.973 77.4063 315.234 68.7292 315.443 62.4844C315.568 58.7709 315.672 55.8907 315.761 53.9219C315.918 50.3021 315.923 50.2969 316.242 49.9948C316.409 49.8386 316.639 49.7501 316.868 49.7605C317.84 49.7865 318.017 50.9844 318.174 52.0365C318.315 52.9896 318.456 54.3698 318.597 56.2501C318.858 59.7553 319.109 64.6251 319.37 69.7865C319.741 77.1198 320.164 85.4323 320.743 92.0573C321.553 101.297 322.373 103.448 322.712 103.948C322.749 103.927 322.79 103.891 322.843 103.833C323.506 103.13 324.576 100.328 324.253 89.4844C324.049 82.5886 323.37 75.2761 323.01 71.3438C322.738 68.4167 322.738 68.4167 323.036 68.1042C323.208 67.9219 323.448 67.823 323.699 67.8282C324.179 67.8438 324.555 68.2448 324.54 68.724C324.54 68.7501 324.535 68.7709 324.535 68.7969C324.545 69.0626 324.634 70.0521 324.738 71.1876C326.665 92.0834 326.472 102.516 324.106 105.026C323.542 105.62 322.937 105.729 322.524 105.719C321.281 105.682 320.707 104.089 320.216 101.714C319.814 99.7448 319.448 96.9688 319.103 93.2344C318.472 86.4167 318.028 77.6251 317.636 69.8751C317.495 67.1094 317.354 64.3178 317.208 61.7605C316.633 78.7448 315.761 110.974 315.38 125.74C315.375 125.891 315.328 126.042 315.249 126.172ZM305.207 84.0782C303.567 106.037 301.954 129.885 305.829 134.182C305.855 134.214 305.881 134.24 305.907 134.266C305.755 129.156 305.238 110.302 305.197 91.1876C305.191 88.6928 305.197 86.3178 305.207 84.0782ZM284.318 68.0417C283.958 73.9219 283.524 80.0521 283.101 86.0886C282.151 99.5521 281.169 113.474 280.997 124.406C280.809 136.323 281.629 143.38 283.441 145.375C283.812 145.792 284.125 145.844 284.323 145.854C285.002 145.875 285.561 145.625 286.083 145.068C288.177 142.839 288.945 136.677 288.95 128.438C288.935 128.13 288.919 127.818 288.903 127.5C288.684 123.182 288.48 118.068 288.287 112.193C287.702 103.662 286.804 94.4167 285.948 85.5834C285.357 79.4688 284.783 73.5573 284.318 68.0417ZM299.405 49.3334C299.296 52.1094 299.222 55.2761 299.191 58.9011C299.061 73.6355 299.645 91.323 300.162 106.927C300.189 107.625 300.209 108.313 300.23 108.995C300.444 104.052 300.632 98.823 300.758 93.5469C301.317 70.823 300.601 57.2865 299.405 49.3334ZM299.776 42.7813C300.873 46.4167 301.646 51.8073 302.126 59.0626C302.716 67.9584 302.841 79.5782 302.497 93.599C302.434 96.2396 302.356 98.8646 302.267 101.453C302.638 95.0521 303.155 88.1771 303.677 81.1928C304.533 69.7448 305.421 57.9011 305.583 48.7032C305.761 38.75 305.056 32.8178 303.484 31.0782C303.144 30.7032 302.862 30.6511 302.68 30.6459C302.638 30.6459 302.512 30.6407 302.309 30.849C301.421 31.7344 300.408 34.6875 299.776 42.7813ZM285.055 52.8698C285.404 61.7761 286.459 72.8178 287.593 84.5261C287.154 62.0678 286.971 40.4948 286.935 35.2396C286.914 35.2605 286.893 35.2813 286.872 35.3021C285.989 36.2396 285.415 38.4584 285.133 41.9375C285.19 44.1146 285.196 46.573 285.143 49.323C285.128 50.4688 285.096 51.6563 285.055 52.8698ZM281.446 29.9063C281.451 35.9115 281.436 59.0001 281.107 82.1407C281.06 85.5938 281.007 88.8386 280.95 91.8855C281.091 89.9115 281.227 87.9323 281.368 85.9688C282.161 74.7188 283.002 62.7813 283.31 52.7605C283.154 48.6459 283.159 45.0313 283.389 42.0678C283.242 36.0365 282.673 31.625 281.446 29.9063ZM252.807 113.901C252.818 115.068 252.833 116.203 252.86 117.302C252.98 122.891 253.241 127.063 253.659 130.047C253.737 130.599 253.815 131.089 253.894 131.526C253.627 127.646 253.215 121.412 252.807 113.901ZM241.674 70.5782C241.334 79.224 240.671 88.7813 240.013 98.224C239.277 108.813 238.582 118.807 238.425 126.63C238.211 137.021 239.083 140.214 239.851 141.063C240.002 141.224 240.091 141.224 240.123 141.229C240.556 141.24 240.927 141.068 241.298 140.688C242.948 138.969 243.919 133.849 244.191 125.427C243.877 120.839 243.611 115.089 243.402 108.266C243.225 102.484 243.094 96.2553 242.995 90.0001C242.755 86.2657 242.493 82.5157 242.238 78.7917C242.034 75.9115 241.846 73.1719 241.674 70.5782ZM242.608 41.9584C242.587 42.1459 242.567 42.3386 242.546 42.5469C242.352 44.6511 242.305 47.5521 242.405 51.4271C242.462 53.7761 242.572 56.3698 242.718 59.1563C242.713 57.9688 242.708 56.8126 242.702 55.7084C242.676 50.2084 242.65 45.1719 242.608 41.9584Z" fill="black"/>
</g>
</g>
</g>
<mask id="mask23_2017_4544" style="mask-type:luminance" maskUnits="userSpaceOnUse" x="2" y="29" width="45" height="41">
<path d="M2 29.3333H46.1173V69.3333H2V29.3333Z" fill="white"/>
</mask>
<g mask="url(#mask23_2017_4544)">
<mask id="mask24_2017_4544" style="mask-type:luminance" maskUnits="userSpaceOnUse" x="-64" y="-9" width="131" height="123">
<path d="M-63.988 32.3644L32.7224 -8.41162L66.9906 72.4269L-29.725 113.203L-63.988 32.3644Z" fill="white"/>
</mask>
<g mask="url(#mask24_2017_4544)">
<mask id="mask25_2017_4544" style="mask-type:luminance" maskUnits="userSpaceOnUse" x="-25" y="-9" width="92" height="106">
<path d="M-24.3826 15.6665L32.7224 -8.41162L66.9906 72.4269L9.88559 96.505L-24.3826 15.6665Z" fill="white"/>
</mask>
<g mask="url(#mask25_2017_4544)">
<mask id="mask26_2017_4544" style="mask-type:luminance" maskUnits="userSpaceOnUse" x="-65" y="-9" width="132" height="123">
<path d="M-64.129 32.4269L32.5814 -8.34912L66.8496 72.4894L-29.866 113.265L-64.129 32.4269Z" fill="white"/>
</mask>
<g mask="url(#mask26_2017_4544)">
<path d="M31.3855 36.5884C28.7482 37.828 26.2102 39.0415 23.6357 40.4218C16.4812 44.2343 9.54614 47.4322 2.04703 50.479C1.95825 50.5155 1.86425 50.552 1.77547 50.5884C1.68147 50.6249 1.58747 50.6613 1.49347 50.703C-8.3922 54.7134 -18.4659 58.2134 -28.4351 62.0051C-29.2184 62.3072 -42.6395 67.453 -42.6761 68.2343C-42.321 68.5468 -28.7432 63.328 -28.033 63.0728C-18.0168 59.427 -7.8752 55.9374 2.00525 51.9582C2.09925 51.9218 2.19325 51.8801 2.28725 51.8384C2.38125 51.8072 2.47002 51.7707 2.56403 51.7343C10.0892 48.6561 17.0714 45.3853 24.231 41.5051C26.7742 40.1197 29.2914 38.8905 31.8816 37.6197C35.1611 35.9947 38.0804 34.4218 41.1824 32.4634C41.4539 32.2811 45.3601 29.7811 45.3079 29.5207C45.1042 28.9686 40.9839 31.6561 40.7437 31.7447C37.6156 33.552 34.6494 35.052 31.3855 36.5884Z" fill="black"/>
</g>
</g>
</g>
</g>
<mask id="mask27_2017_4544" style="mask-type:luminance" maskUnits="userSpaceOnUse" x="2" y="44" width="54" height="32">
<path d="M2 44H55.4756V75.3906H2V44Z" fill="white"/>
</mask>
<g mask="url(#mask27_2017_4544)">
<mask id="mask28_2017_4544" style="mask-type:luminance" maskUnits="userSpaceOnUse" x="-64" y="-9" width="131" height="123">
<path d="M-63.988 32.3644L32.7224 -8.41162L66.9906 72.4269L-29.725 113.203L-63.988 32.3644Z" fill="white"/>
</mask>
<g mask="url(#mask28_2017_4544)">
<mask id="mask29_2017_4544" style="mask-type:luminance" maskUnits="userSpaceOnUse" x="-25" y="-9" width="92" height="106">
<path d="M-24.3826 15.6665L32.7224 -8.41162L66.9906 72.4269L9.88559 96.505L-24.3826 15.6665Z" fill="white"/>
</mask>
<g mask="url(#mask29_2017_4544)">
<mask id="mask30_2017_4544" style="mask-type:luminance" maskUnits="userSpaceOnUse" x="-65" y="-9" width="132" height="123">
<path d="M-64.129 32.4269L32.5814 -8.34912L66.8496 72.4894L-29.866 113.265L-64.129 32.4269Z" fill="white"/>
</mask>
<g mask="url(#mask30_2017_4544)">
<path d="M39.6679 51.2551C33.6467 53.9582 27.4949 56.2603 21.458 58.9321C16.5961 61.104 11.7343 63.1821 6.8097 65.1978C6.71048 65.2394 6.61126 65.2811 6.51204 65.328C6.40759 65.3644 6.30315 65.4061 6.1987 65.453C-4.58519 69.8801 -15.484 73.9894 -26.3044 78.3071C-26.9102 78.5519 -41.9763 84.5936 -41.7309 85.1769C-41.3183 85.5207 -26.6491 79.6665 -25.8866 79.3696C-15.014 75.1978 -4.06819 71.104 6.7157 66.703C6.82015 66.6613 6.91937 66.6196 7.02381 66.5728C7.12826 66.5363 7.22748 66.4946 7.3267 66.453C12.2617 64.4217 17.1288 62.3071 21.9907 60.1092C28.0172 57.4061 34.1742 55.078 40.1484 52.2915C43.031 50.9113 45.6735 49.5311 48.3734 47.8332C48.9635 47.4946 54.9064 44.7655 54.8698 44.4478C54.4782 43.9686 48.3473 46.8176 47.8929 47.0467C45.1774 48.6248 42.5245 49.9478 39.6679 51.2551Z" fill="black"/>
</g>
</g>
</g>
</g>
<mask id="mask31_2017_4544" style="mask-type:luminance" maskUnits="userSpaceOnUse" x="2" y="0" width="33" height="27">
<path d="M2 0H34.0853V26.6667H2V0Z" fill="white"/>
</mask>
<g mask="url(#mask31_2017_4544)">
<mask id="mask32_2017_4544" style="mask-type:luminance" maskUnits="userSpaceOnUse" x="-64" y="-9" width="131" height="123">
<path d="M-63.988 32.3644L32.7224 -8.41162L66.9906 72.4269L-29.725 113.203L-63.988 32.3644Z" fill="white"/>
</mask>
<g mask="url(#mask32_2017_4544)">
<mask id="mask33_2017_4544" style="mask-type:luminance" maskUnits="userSpaceOnUse" x="-25" y="-9" width="92" height="106">
<path d="M-24.3826 15.6665L32.7224 -8.41162L66.9906 72.4269L9.88559 96.505L-24.3826 15.6665Z" fill="white"/>
</mask>
<g mask="url(#mask33_2017_4544)">
<mask id="mask34_2017_4544" style="mask-type:luminance" maskUnits="userSpaceOnUse" x="-65" y="-9" width="132" height="123">
<path d="M-64.129 32.4269L32.5814 -8.34912L66.8496 72.4894L-29.866 113.265L-64.129 32.4269Z" fill="white"/>
</mask>
<g mask="url(#mask34_2017_4544)">
<path d="M24.0117 6.24989C17.5152 10.0207 11.6246 12.5468 4.54324 14.9686C4.48579 14.9895 4.42312 15.0103 4.36568 15.0311C4.30301 15.052 4.24035 15.0728 4.17768 15.0936C-2.70521 17.4426 -9.70821 19.4426 -16.5493 21.8957C-17.2073 22.1405 -27.3228 25.8489 -27.2914 26.6041C-27.0042 26.9061 -16.8052 23.1874 -16.1733 22.9738C-9.26432 20.6874 -2.2561 18.703 4.61635 16.3749C4.67901 16.3541 4.74168 16.3332 4.80435 16.3072C4.86701 16.2916 4.92446 16.2707 4.98712 16.2499C11.8073 13.9061 18.4709 11.0363 24.607 7.22385C27.4375 5.43218 30.9625 3.0676 33.4012 0.71864C33.4065 0.713432 33.3856 0.729057 33.3908 0.723849C33.4796 0.645723 33.8712 0.307182 33.7877 0.15614C33.6728 0.0311404 33.2237 0.291558 33.1192 0.34364C33.114 0.34364 33.1088 0.348849 33.1036 0.354057C30.0172 2.28635 27.2338 4.32281 24.0117 6.24989Z" fill="black"/>
</g>
</g>
</g>
</g>
<mask id="mask35_2017_4544" style="mask-type:luminance" maskUnits="userSpaceOnUse" x="47" y="62" width="147" height="14">
<path d="M47.8302 62.3384H193.473V75.3905H47.8302V62.3384Z" fill="white"/>
</mask>
<g mask="url(#mask35_2017_4544)">
<path d="M86.2605 85.5831C86.6 84.8435 86.6679 83.7028 85.7122 83.3695C84.1455 82.6976 82.981 81.2862 81.2054 80.9528C79.7067 80.0778 78.3384 79.0049 76.495 78.8695C76.4271 79.0049 76.2913 79.0049 76.0877 78.9372C76.2913 79.0049 76.4271 78.9372 76.495 78.8695C75.5393 78.1976 74.6515 77.5935 73.6959 76.9216C74.239 76.5883 74.7194 76.3174 75.2678 75.9841C77.7901 77.1247 80.2498 78.6039 83.1847 78.8695C83.5293 79.0726 83.8688 79.2081 84.2134 79.406C86.2605 80.7497 88.7202 81.2862 91.0389 82.0258C91.3157 82.0258 91.5872 82.0935 91.9267 82.0935C92.8823 83.031 94.0469 83.2341 95.2741 83.5726C96.2298 84.2393 97.2533 84.4424 98.4127 84.5778C99.3735 85.182 100.397 85.5831 101.556 85.7185C101.624 85.6508 101.624 85.5831 101.692 85.4528C101.624 85.5153 101.624 85.5831 101.556 85.7185C102.512 86.057 103.739 87.2653 104.288 85.7862C104.695 84.7133 104.22 83.2341 102.512 82.9685C102.032 82.9008 101.556 82.6976 101.076 82.5622C100.94 82.0258 100.465 82.0935 100.052 82.0935C99.713 81.4893 99.0968 81.2862 98.4858 81.0883C97.9374 81.0883 97.3891 81.0883 96.846 81.1508C97.3891 81.1508 97.9374 81.1508 98.4858 81.0883C97.1854 80.2133 95.8903 79.3383 94.3184 78.9372C93.9059 78.3331 93.3628 77.9997 92.6108 77.9997C92.0624 77.8643 91.5872 77.7289 91.0389 77.5258C90.971 77.3956 90.8352 77.3278 90.6994 77.3278C90.4958 77.1924 90.2869 76.9893 90.1511 76.8539C89.0597 76.1872 87.9682 75.5154 86.8768 74.8435C87.0125 74.5726 87.2162 74.2393 87.352 73.9685C89.0597 74.7758 90.6994 75.6456 92.5429 76.0518C96.846 78.4008 101.556 79.6091 106.199 81.0206C107.703 81.4893 109.343 82.8331 110.706 81.3539C111.594 80.281 110.163 79.2758 109.411 78.4685C109.343 77.4581 108.591 77.4581 107.839 77.3956V77.4581C107.567 76.7914 107.019 76.4528 106.267 76.4528C105.724 76.1195 105.175 75.781 104.695 75.4476C104.288 74.5726 103.4 74.5726 102.716 74.2393C102.173 73.9008 101.624 73.6351 101.144 73.2966C98.209 71.2185 95.2062 69.2028 92.2713 67.1195C92.1303 66.9216 91.9267 66.7862 91.7909 66.5831C92.0624 65.7758 92.8144 66.5153 93.2949 66.182C94.1827 66.5153 95.0704 66.8539 95.9582 67.1195C96.4334 67.8591 97.1175 68.1299 98.0053 68.1976C98.209 68.5987 98.6215 68.6664 99.0289 68.7341C101.144 69.7393 103.06 71.1508 105.311 71.8226C107.087 72.6924 108.727 74.1039 110.909 73.9008C110.909 74.1039 110.977 74.2393 111.118 74.3747C111.594 75.2445 112.549 74.9789 113.233 75.3799C113.714 76.0518 114.461 75.8487 115.145 76.0518C115.761 76.7237 116.513 76.9893 117.401 76.9216C117.74 76.9216 118.08 76.9893 118.424 76.9893C119.448 75.2445 119.448 75.2445 121.088 75.4476C122.247 75.8487 123.406 76.2497 124.571 76.656C125.594 77.1247 126.618 77.7966 127.913 77.5258C128.869 78.0674 129.824 78.6716 131.057 78.6716C133.584 79.4737 133.584 79.4737 133.72 78.0674C133.652 77.057 133.652 76.0518 132.148 76.0518C129.965 74.2393 127.302 73.2289 124.774 71.8903C124.09 71.3487 123.338 70.8799 122.654 70.3435C122.654 69.8747 122.654 69.406 122.654 68.932C123.819 68.531 124.158 70.1403 125.25 69.9424C125.459 70.4112 125.934 70.3435 126.346 70.4789C127.093 71.5518 128.393 71.6195 129.553 71.9528C130.237 72.156 130.921 72.4268 131.6 72.6247C131.877 73.432 132.968 72.7601 133.308 73.5674C134.404 74.3747 135.496 75.0414 136.927 75.1091C137.339 75.5154 137.814 75.7133 138.431 75.7133C140.546 76.9893 142.937 77.5935 145.329 78.1976C145.669 78.1976 146.013 78.1976 146.353 78.1976C146.901 78.4008 147.444 78.6039 147.992 78.8018C148.88 79.6768 150.243 79.5414 150.588 78.8018C151.063 77.6612 150.107 76.7237 148.948 76.2497C146.217 74.7081 143.689 72.8956 140.619 72.0883C140.478 71.8903 140.274 71.6872 140.138 71.4841C140.274 70.2081 141.162 70.682 141.914 70.682C143.893 71.4841 145.94 72.2914 147.925 73.1612C149.084 73.7653 150.175 74.6403 151.679 74.6403V74.5049C151.679 74.5726 151.679 74.6403 151.679 74.6403C151.951 74.7081 152.296 74.7081 152.567 74.7758C152.771 74.9112 152.974 75.0414 153.251 75.2445C153.998 75.8487 154.886 76.2497 155.847 76.1872C156.39 76.3851 157.142 76.1195 157.481 76.7914C158.165 77.5258 159.053 77.7966 160.009 77.8643C161.241 78.3331 162.401 78.8695 163.628 79.2081C165.064 79.5414 166.427 80.6143 167.999 79.4737C168.135 79.4737 168.27 79.4737 168.411 79.5414C168.547 79.8122 168.615 80.281 168.819 80.3487C169.639 80.6143 170.73 80.682 170.934 79.6091C171.21 78.2654 170.594 77.1924 169.09 76.7914C167.315 75.781 165.607 74.7081 163.831 73.7028C160.693 71.7549 157.549 69.807 154.411 67.9268C154.071 67.2549 153.523 66.9893 152.839 67.0518C153.11 66.3799 151.408 66.3174 152.296 65.4424C152.974 65.4424 153.726 65.5101 154.411 65.5101C154.75 65.9789 155.095 65.5778 155.434 65.5101C155.915 65.5778 156.39 65.5101 156.661 66.0466C158.301 66.5831 159.941 67.1195 161.649 67.656C162.536 67.9268 163.492 68.2601 164.38 68.531C164.719 68.531 165.064 68.531 165.403 68.531C165.607 68.7341 165.884 68.932 166.087 69.1351C166.907 70.0101 167.999 70.0101 169.022 70.2758C170.798 71.4841 172.986 71.4164 174.897 72.2237C176.328 73.031 177.832 73.7028 179.54 73.8331C180.767 73.5674 181.655 74.4372 182.678 74.7758C184.731 75.3122 186.846 75.8487 188.893 76.3851C189.102 76.2497 189.238 76.0518 189.305 75.9841C189.238 76.1195 189.102 76.2497 188.893 76.3851C189.17 77.057 189.781 76.9216 190.329 76.9893C191.353 77.3956 192.721 78.0674 193.128 76.656C193.468 75.5153 192.308 74.7758 191.013 74.5049C189.305 74.1716 187.53 73.7653 185.822 73.3643C185.138 73.1612 184.454 72.9633 183.707 72.7601C180.699 71.2862 177.357 70.8122 174.281 69.6039C173.393 68.8643 172.302 68.8643 171.278 68.531C169.571 67.0518 167.315 67.3226 165.403 66.5153C164.516 65.7133 163.424 65.5778 162.265 65.4424C161.168 65.1091 160.145 64.7706 159.053 64.4372C156.729 63.2914 154.139 63.3591 151.747 62.6247C150.927 62.3539 150.04 62.4893 149.491 63.3591C147.648 65.3747 148.948 66.5831 150.588 67.7914C150.792 67.8591 150.995 67.9268 151.199 68.0622C152.363 68.9997 153.251 70.3435 154.886 70.682C155.163 70.8799 155.434 71.0831 155.706 71.3487C156.186 72.2914 157.074 72.6247 158.03 72.8278C158.782 73.4997 159.534 74.2393 160.212 74.9112C159.534 75.7133 158.985 74.9112 158.437 74.7758C155.774 74.1039 153.455 72.6247 150.724 72.0883C150.175 71.8226 149.632 71.5518 149.084 71.2862C147.037 70.682 145.601 68.8018 143.282 68.7341C141.365 67.9945 139.454 67.2549 137.611 66.5153C136.383 65.5101 134.812 65.1716 133.308 64.7028C132.352 63.6976 131.057 63.9008 129.897 63.8331C128.258 63.8331 127.641 64.6351 128.597 66.1143C128.937 67.5258 130.441 67.8591 131.26 68.8018C131.26 69.2706 131.26 69.6716 131.26 70.1403C129.281 69.7393 127.709 68.1299 125.526 68.0622C124.226 66.8539 122.586 66.4476 120.884 65.9112C119.244 64.5674 117.192 64.4372 115.213 63.9633C114.393 63.7653 113.233 63.9008 112.962 65.1091C112.753 66.3174 112.894 67.3226 114.461 67.4581C114.669 67.656 114.805 67.8591 115.009 67.9945C115.077 68.932 115.897 68.8643 116.445 69.2028C117.192 70.2081 118.288 70.6143 119.312 71.2185C119.651 71.4164 121.02 71.8903 119.651 72.6247C118.967 71.8226 117.944 72.2237 117.124 71.8903C116.649 71.5518 116.168 71.0831 115.484 71.0831C115.28 71.0831 115.145 71.0153 114.941 71.0153C113.573 70.4789 112.142 69.9424 110.774 69.406C110.298 69.2706 109.75 69.0674 109.275 68.932C107.358 67.656 105.175 67.1195 102.852 66.9216C101.692 65.9789 100.533 67.3903 99.3735 66.8539C98.2769 66.0466 97.0497 65.3747 95.6135 65.1716C95.0025 64.6351 94.3184 64.3018 93.4985 64.3018C92.6108 63.2914 91.3157 63.4945 90.219 63.0935C89.1954 62.7549 88.5792 63.4945 88.104 64.1664C87.6235 64.906 87.7645 65.5778 88.5113 66.182C88.856 66.5153 89.1275 66.9893 89.3991 67.3903C90.7673 68.8018 92.0624 70.2758 93.9738 71.0153C93.0912 70.0101 92.2034 68.932 91.3157 67.9268C90.971 67.7237 90.6315 67.5935 90.2869 67.3903C90.2869 67.1872 90.2869 67.0518 90.2869 66.8539C90.219 66.7862 90.1511 66.7862 90.1511 66.7185C90.219 66.7862 90.2869 66.7862 90.2869 66.8539C90.2869 67.0518 90.2869 67.1872 90.2869 67.3903C90.6315 67.5935 90.971 67.7237 91.3157 67.9268C92.2034 68.932 93.0912 70.0101 93.9738 71.0153C95.0704 72.557 97.0497 73.031 98.209 74.5049C97.9374 75.4476 96.9139 74.5049 96.5692 75.1768C96.094 75.1091 95.6135 75.1091 95.2062 75.0414C92.6108 73.031 89.1954 72.7601 86.3284 71.4164C84.8923 70.2758 83.2578 69.5362 81.4822 69.2028C80.9339 68.932 80.3855 68.6664 79.8424 68.3956C79.0904 68.0622 78.4063 67.7914 77.6543 67.4581L77.5864 67.3903C76.2234 66.3799 74.6515 65.8435 72.9439 65.7133C71.7167 66.0466 70.8289 66.4476 71.7845 67.9268C72.876 70.1403 75.1268 70.8799 77.1112 72.0206C77.6543 72.7601 78.2027 73.4997 79.2262 73.432C79.7745 73.8331 80.2498 74.1716 80.7981 74.5726C81.2054 74.6403 81.618 74.6404 81.8217 75.1091C81.618 75.4476 81.4822 75.7133 81.2733 76.0518C80.5944 75.7133 79.7067 75.781 79.2262 75.1091C77.999 74.7758 76.7665 74.4372 75.5393 74.1039C73.3512 73.2289 71.1683 72.2237 68.9175 71.5518C67.6851 71.1508 66.7973 69.6716 65.1575 70.2758C64.5465 69.406 63.523 69.5362 62.6352 69.3383C60.7187 68.4633 58.8073 67.3903 56.5565 68.2601C55.0525 70.4112 57.5122 70.7445 58.2642 71.9528C57.3764 72.8956 56.3529 71.5518 55.4651 72.0883C53.8253 71.8903 52.7287 70.4112 51.0262 70.4112C50.6815 70.2758 50.2742 70.0726 49.9295 69.9424C49.2507 69.3383 48.4987 68.8018 47.4751 69.2706C47.543 70.2081 48.154 70.6143 48.8381 70.8799C49.0418 70.8799 49.1828 70.8799 49.3864 70.9476C51.2299 72.0883 52.8018 73.7653 55.1204 74.0362C56.4887 75.2445 58.2642 75.4476 59.8309 76.1195C64.886 78.6039 70.2127 80.5466 75.5393 82.3643C78.5421 83.5726 81.618 84.781 84.6208 85.9893C85.0333 85.9216 85.848 86.3903 86.2605 85.5831ZM102.512 78.1299C102.716 78.0674 102.919 77.8643 103.128 77.4581C102.993 77.7966 102.784 77.9997 102.512 78.1299ZM104.22 77.3278C104.152 77.3956 104.152 77.4581 104.084 77.5258C104.152 77.4581 104.22 77.3956 104.22 77.3278ZM148.744 76.7237C148.603 76.5206 148.4 76.2497 148.196 75.9841C148.4 76.2497 148.603 76.4528 148.744 76.7237ZM143.961 75.3799C143.961 75.6456 143.961 75.9164 144.029 76.1872C143.961 75.9164 143.961 75.5831 143.961 75.3799C143.757 75.3122 143.554 75.3122 143.35 75.3799C143.621 75.2445 143.825 75.2445 143.961 75.3799ZM136.791 72.2914C137.135 72.6247 137.407 72.9633 137.746 73.2966C137.407 72.8956 137.068 72.557 136.791 72.2914ZM137.679 73.3643C137.746 73.6351 138.295 73.7654 138.77 73.9685C138.295 73.8331 137.679 73.6351 137.679 73.3643ZM140.274 72.2914C141.365 72.8278 142.394 73.3643 143.486 73.9008C142.394 73.2966 141.365 72.7601 140.274 72.2914C139.658 72.156 139.047 72.0883 138.634 71.6872C139.047 72.0206 139.731 72.0883 140.274 72.2914ZM169.158 77.3956C169.503 77.9997 169.571 78.3331 169.367 78.5362C169.571 78.3331 169.503 77.932 169.158 77.3956C168.819 77.1924 168.411 77.057 168.067 76.8539C168.479 77.057 168.819 77.1924 169.158 77.3956ZM185.274 73.3643C184.595 73.1612 183.911 72.9633 183.227 72.7601C183.979 72.9633 184.663 73.1612 185.274 73.3643ZM182.271 72.7601C180.835 71.8903 179.2 71.5518 177.561 71.0831C179.127 71.5518 180.767 71.8903 182.271 72.7601ZM150.52 62.8226C150.927 62.7549 151.335 62.7549 151.611 62.9581C151.335 62.7549 150.995 62.7549 150.52 62.8226ZM150.859 65.5778C150.995 65.9112 151.408 66.2497 151.883 66.6508C151.408 66.3174 150.927 65.9789 150.859 65.5778ZM154.478 69.1351C155.095 68.9997 155.502 69.1351 155.982 69.3383C155.502 69.1351 155.027 68.9997 154.478 69.1351ZM160.212 74.307C160.28 73.7653 159.941 73.4997 159.534 73.2289C159.941 73.4997 160.353 73.7653 160.212 74.307C160.353 74.6403 160.693 74.7081 161.1 74.8435C160.761 74.7081 160.421 74.6403 160.212 74.307ZM151.883 72.7601C152.431 73.0987 152.907 73.432 153.455 73.8331C154.614 73.7653 155.706 74.1039 156.802 74.5726C155.706 74.1716 154.682 73.7653 153.455 73.8331C152.907 73.432 152.363 73.0987 151.883 72.7601C151.747 72.4945 151.408 72.3591 151.131 72.2914C151.408 72.3591 151.679 72.4268 151.883 72.7601ZM137.135 66.182C137.135 66.182 137.203 66.1143 137.203 66.0466L137.135 66.182ZM137.611 68.3278C137.746 68.2601 137.882 68.2601 138.023 68.2601C137.955 68.3278 137.814 68.3278 137.611 68.3278C137.611 68.531 137.543 68.7341 137.407 68.8643C137.543 68.8018 137.611 68.5987 137.611 68.3278ZM140.822 68.1976C141.501 68.3278 142.185 68.531 142.937 68.6664C142.253 68.4633 141.574 68.3278 140.822 68.1976ZM115.145 65.0414C115.348 65.1716 115.557 65.307 115.693 65.5101C116.236 65.4424 116.852 65.2393 117.401 65.307C116.852 65.1716 116.304 65.4424 115.693 65.5101C115.557 65.3747 115.348 65.1716 115.145 65.0414ZM118.832 73.2966C118.832 73.6351 118.832 73.9008 118.832 74.2393C118.832 73.9008 118.832 73.5674 118.832 73.2966ZM117.26 73.2966C117.124 73.2289 117.056 73.0987 116.988 73.031C117.056 73.0987 117.124 73.1612 117.26 73.2966ZM112.006 72.2914C112.006 72.2914 112.006 72.4268 112.006 72.4945V72.2914ZM116.717 72.2914C116.92 72.2914 117.056 72.3591 117.26 72.3591C117.124 72.2914 116.92 72.2914 116.717 72.2914C116.236 72.2914 115.897 72.156 115.625 71.9528C115.965 72.0883 116.304 72.2237 116.717 72.2914ZM106.815 69.6716C108.042 69.8747 109.202 70.0726 110.434 70.2081C109.202 70.0726 107.975 69.8747 106.815 69.6716ZM101.489 68.6664C101.076 68.3956 100.465 68.2601 100.188 67.8591C100.465 68.2601 101.076 68.3278 101.489 68.6664ZM78.4742 70.2081C77.4507 69.8747 76.3592 69.5362 75.3357 69.2028C76.4271 69.4685 77.4507 69.8747 78.4742 70.2081ZM81.4091 71.7549C81.6859 71.8226 81.8895 71.8903 82.0932 72.156C82.5737 71.8903 82.981 71.8903 83.3257 71.9528C82.981 71.8226 82.5737 71.8226 82.0932 72.156C81.9574 71.8903 81.6859 71.7549 81.4091 71.7549ZM57.0318 69.7393C56.8281 69.6039 56.6923 69.4685 56.6244 69.2706C56.6923 69.406 56.8281 69.5362 57.0318 69.7393C57.2407 70.1403 57.5122 70.4112 57.8517 70.5466C57.5122 70.4112 57.1675 70.1403 57.0318 69.7393ZM64.9539 73.2289C64.7502 73.2289 64.5465 73.2289 64.3377 73.2289C64.5465 73.2966 64.7502 73.2966 64.9539 73.2289ZM68.0298 71.7549C67.9567 71.6872 67.9567 71.6195 67.8888 71.5518C67.9567 71.6195 68.0298 71.6872 68.0298 71.7549ZM60.8597 73.7028C60.7187 73.7028 60.6508 73.7653 60.515 73.7653C60.6508 73.7653 60.7865 73.7653 60.8597 73.7028ZM83.733 77.932C83.733 77.8643 83.733 77.7966 83.733 77.6612C83.733 77.7289 83.733 77.8643 83.733 77.932ZM96.2977 81.0206C95.9582 81.2185 95.6135 81.3539 95.2062 81.557C95.5457 81.3539 95.8903 81.2185 96.2977 81.0206ZM91.5872 78.4008C91.5193 78.4685 91.4514 78.6039 91.3835 78.6716C91.4514 78.6039 91.5193 78.5362 91.5872 78.4008ZM87.9682 76.8539C87.7645 77.2601 87.5557 77.5935 87.2841 77.9997C86.8037 78.0674 86.3284 77.932 85.9211 77.7966C86.3284 77.9997 86.8037 78.0674 87.2841 77.9997C87.5557 77.5935 87.7645 77.1924 87.9682 76.8539ZM83.733 77.3278C83.733 77.2601 83.733 77.2601 83.733 77.2601C83.8009 77.2601 83.8009 77.2601 83.733 77.3278ZM83.733 74.8435C83.0489 74.2393 82.0932 73.9008 81.4091 73.2289C82.0932 73.8331 83.0489 74.1716 83.733 74.8435ZM84.8244 74.7758C84.8244 74.5726 84.8244 74.4372 84.8244 74.2393C84.8244 74.4372 84.8244 74.6404 84.8244 74.7758C85.3728 75.2445 86.1927 75.3122 86.8037 75.5831C86.1927 75.3799 85.3728 75.2445 84.8244 74.7758ZM69.1212 77.3956C68.9175 77.5935 68.7765 77.7289 68.5729 77.7289C68.7087 77.7289 68.9175 77.5935 69.1212 77.3956Z" fill="black"/>
</g>
<mask id="mask36_2017_4544" style="mask-type:luminance" maskUnits="userSpaceOnUse" x="301" y="1" width="74" height="75">
<path d="M301.463 1.33325H374.992V75.3905H301.463V1.33325Z" fill="white"/>
</mask>
<g mask="url(#mask36_2017_4544)">
<mask id="mask37_2017_4544" style="mask-type:luminance" maskUnits="userSpaceOnUse" x="289" y="1" width="93" height="88">
<path d="M289.854 14.4009L368.751 1.19775L381.165 74.9634L302.267 88.1717L289.854 14.4009Z" fill="white"/>
</mask>
<g mask="url(#mask37_2017_4544)">
<mask id="mask38_2017_4544" style="mask-type:luminance" maskUnits="userSpaceOnUse" x="289" y="1" width="92" height="88">
<path d="M380.977 75.4531L302.079 88.6615L289.666 14.8906L368.563 1.6875L380.977 75.4531Z" fill="white"/>
</mask>
<g mask="url(#mask38_2017_4544)">
<path d="M352.15 77.0625C353.174 76.7396 356.469 75.9583 359.022 75.2291C359.806 75.0885 360.589 74.9375 361.367 74.7708C351.978 78.8698 339.643 81.0833 330.285 82.6927C333.632 81.8906 341.585 80.427 352.15 77.0625ZM308.195 84.0052C309.511 85.0677 311.479 85.3541 313.166 85.3698C310.889 85.776 307.474 86.1562 305.552 84.75C304.492 83.9791 303.886 82.5937 304.226 81.3021C304.617 79.8177 305.907 78.5364 307.119 77.5208C306.08 79.7343 306.445 82.5937 308.195 84.0052ZM312.487 83.3698C313.02 83.7916 313.636 84.0885 314.273 84.3073C310.9 84.3698 308.299 83.6823 308.048 80.3437C307.876 78.0364 309.359 76.151 311.182 74.7135C312.602 73.875 314.07 73.1146 315.547 72.3854C310.017 76.4583 310.022 81.4323 312.487 83.3698ZM367.425 68.4843C367.759 69.0833 367.488 68.5364 367.895 69.7343C367.394 69.2604 366.804 68.6927 366.198 68.0781C366.511 68.177 366.898 68.3073 367.425 68.4843ZM364.307 67.5416C365.232 68.4843 366.193 69.3906 367.206 70.2448C364.95 71.7291 362.281 72.552 359.821 73.4635C358.751 73.8646 357.675 74.2552 356.594 74.6302C354.693 74.9166 352.787 75.1614 350.881 75.4479C346.082 76.177 338.807 77.5573 333.428 78.125C330.441 78.4427 327.475 78.6406 324.54 79.3281C322.107 79.8958 320.018 80.151 318.326 78.3177C318.336 78.3073 318.331 78.3125 318.352 78.3073L318.378 78.3281C318.32 78.026 319.01 77.2968 319.234 77.0781C320.352 75.9896 321.694 75.1146 323.015 74.302C323.887 73.7708 324.796 73.1875 325.741 72.7968C331.997 70.2031 343.612 68.5937 348.192 67.7395C354.312 66.5989 358.291 66.0104 364.307 67.5416ZM368.281 65.3333C368.255 65.7916 368.203 66.25 368.13 66.7031C367.911 66.5312 367.686 66.375 367.472 66.2395C367.394 65.8333 367.321 65.427 367.253 65.026C367.597 65.1146 367.942 65.2187 368.281 65.3333ZM365.665 66.026C367.007 67.5729 366.694 67.1093 366.924 67.5468C366.313 67.3437 365.738 67.1666 365.138 66.9948C364.574 66.401 364.02 65.7968 363.467 65.1927C364.26 65.4583 365.059 65.7656 365.665 66.026ZM366.767 64.901C366.824 65.2448 366.882 65.5833 366.945 65.9218C366.824 65.8541 366.699 65.7864 366.569 65.7187C366.428 65.4062 366.287 65.0833 366.151 64.7656C366.354 64.8073 366.563 64.8541 366.767 64.901ZM368.302 64.1198C368.308 64.276 368.308 64.427 368.308 64.5781C367.916 64.4375 367.514 64.3177 367.112 64.2083C367.059 63.8854 367.012 63.5573 366.96 63.2343C367.503 63.5573 367.9 63.8229 368.302 64.1198ZM361.602 64.6302C362.161 65.2604 362.746 65.9062 363.326 66.5208C356.96 65.052 352.97 65.8437 347.596 66.8489C342.619 67.7812 330.927 69.4479 325.026 71.9166C323.334 72.625 319.819 74.7656 318.122 76.3854C317.574 76.9062 316.858 77.6302 316.895 78.4479C316.916 79.026 317.386 79.401 317.809 79.7239C320.138 81.5312 322.9 80.6406 325.323 80.1093C327.391 79.6614 331.924 79.302 333.324 79.1458C338.786 78.5416 345.831 77.1979 350.693 76.4739C333.319 81.052 333.23 81.1354 325.506 82.5416C323.219 82.9583 320.937 83.4948 318.634 83.8646C315.365 83.7291 312.278 82.901 312.404 79.6771C312.607 74.3489 319.6 70.9427 324.566 68.901C335.225 66.2448 350.244 61.6041 361.602 64.6302ZM366.469 62.9583C366.522 63.3333 366.579 63.7083 366.636 64.0833C366.354 64.0104 366.072 63.9479 365.79 63.8906C365.582 63.375 365.383 62.8541 365.19 62.3281C365.623 62.5208 366.052 62.7291 366.469 62.9583ZM364.621 62.0781C364.819 62.651 365.028 63.2187 365.247 63.7864C364.929 63.7239 364.61 63.6718 364.297 63.625C363.702 62.9323 363.054 62.1979 362.124 61.1927C362.96 61.4375 363.79 61.7343 364.621 62.0781ZM361.169 60.9427C361.957 61.7864 362.741 62.6406 363.503 63.5104C362.929 63.4323 362.359 63.3646 361.785 63.302C361.043 62.4583 360.244 61.5364 359.451 60.5989C360.025 60.6875 360.6 60.802 361.169 60.9427ZM356.229 60.3802C356.845 60.3698 357.466 60.3906 358.082 60.4375C358.819 61.3541 359.566 62.2604 360.323 63.151C355.837 62.6979 350.839 61.8906 341.726 63.0833C346.98 61.7031 353.67 60.4323 356.229 60.3802ZM366.84 62.4218C366.683 61.3333 366.542 60.2396 366.407 59.151C366.924 60.3437 367.561 61.927 367.994 63.151C367.623 62.8906 367.237 62.651 366.84 62.4218ZM365.78 57.7291C365.78 57.7343 366.177 60.8698 366.354 62.151C365.869 61.8958 365.378 61.6562 364.877 61.4375C363.905 58.6198 362.756 54.5573 361.78 49.8802C363.853 54.1093 364.412 54.9895 365.78 57.7291ZM358.657 59.6666C354.343 54.5573 350.213 49.276 346.155 43.9583C351.012 49.9896 355.497 54.9479 360.224 59.9375C359.68 59.8229 359.158 59.7343 358.657 59.6666ZM335.763 15.2291C338.468 17.5937 342.165 21.4896 344.557 24.1614C346.98 27.3437 349.508 30.4479 351.952 33.6093C354.975 38.1458 358.182 43.3541 361.028 48.4635C361.863 52.7604 362.929 57.0364 364.323 61.2031C363.284 60.776 362.229 60.427 361.153 60.151C353.508 52.0208 347.685 45.5052 340.39 35.651C337.439 31.6562 334.071 27.1146 332.932 22.177C332.541 20.4843 332.535 19.9843 332.749 18.4218C333.282 14.5208 334.321 14.276 334.316 14.7031C334.817 14.8333 335.298 15.0104 335.763 15.2291ZM330.713 19.0573C332.76 27.5729 338.442 34.7812 347.915 47.0833C343.319 41.6562 342.938 41.1458 338.567 35.6146C334.99 31.0833 330.196 26.026 329.538 20.2448C329.334 18.4895 329.543 15.4948 330.42 13.9687C330.164 15.6354 330.326 17.4427 330.713 19.0573ZM332.541 12.7916C333.021 13.0573 333.522 13.4166 333.961 13.75C333.266 14.2135 332.87 15.4896 332.671 16.2604C331.903 19.2604 331.888 21.1979 333.308 24.9531C331.82 21.7604 330.499 18.0104 330.838 14.5104C330.885 14.0625 330.948 13.5781 331.12 13.1458C331.543 12.8333 332.034 12.7448 332.541 12.7916ZM362.641 9.46351C363.884 10.5729 364.589 12.6146 365.007 14.2187C366.297 19.1406 366.887 24.2656 367.597 29.2916C369.044 39.5364 372.773 55.6875 371.665 72.5833C371.378 73.1406 370.971 73.7812 370.334 73.9739C370.423 74.0312 370.506 74.0885 370.511 74.2031L370.49 74.2083C370.297 74.0625 370.182 73.7395 370.078 73.5312C369.832 73.0573 369.603 72.5677 369.378 72.0833C369.383 72.0833 369.389 72.0781 369.389 72.0781C369.446 72.1198 369.509 72.1562 369.577 72.1823C370.496 72.4739 370.694 71.2396 370.783 70.6093C370.898 69.8125 370.903 68.7083 370.673 67.3437C370.637 66.9375 370.574 66.5364 370.501 66.1354C370.537 66.1093 370.569 66.0781 370.595 66.0312C370.72 65.7916 370.558 65.6458 370.376 65.5312C370.219 64.8229 370 64.052 369.775 63.3437C369.509 58.8437 367.488 54.0677 365.341 50.1145C362.652 28.7604 358.84 17.4843 361.08 10.9375C361.263 10.4166 361.707 9.31767 362.255 9.25517C362.422 9.23434 362.527 9.35934 362.641 9.46351ZM364.981 3.73955C367.66 5.05205 368.224 12.8489 368.637 15.7708C369.477 21.7916 372.976 38.9739 373.065 50.2916C373.122 58.4166 373.504 58.8541 373.326 63.375C372.987 49.8802 370.308 37.6093 369.331 30.8125C368.574 25.5833 367.963 20.2968 366.777 15.1406C366.313 13.1145 365.749 10.9427 364.422 9.29163C363.148 7.70309 361.848 7.98434 361.023 9.68226C358.03 15.8489 361.895 27.4583 364.736 49.026C363.472 46.7968 361.869 44.2552 360.401 42.0729C359.122 33.4323 357.362 14.177 361.148 6.30205C361.916 4.7083 363.44 2.98434 364.981 3.73955ZM365.571 2.6458C363.696 2.04684 362.041 3.57809 361.174 5.06767C356.845 12.4583 358.521 32.0364 359.821 41.2187C357.163 37.3333 354.302 33.5885 351.33 29.9427C349.293 27.4427 339.486 12.7135 333.376 11.776C332.958 11.5573 332.462 11.3437 331.992 11.4427C331.439 11.5625 331.078 11.9687 330.843 12.4531C329.585 13.5781 329.204 15.7448 329.068 17.4218C328.441 24.9531 333.721 30.2968 338.358 36.1771C347.325 47.5521 346.896 46.4635 352.354 53.2343C354.04 55.3229 355.68 57.4427 357.357 59.5364C355.21 59.3906 353.79 59.6146 351.664 59.9583C345.043 61.0156 338.295 62.7656 331.794 65.0104C327.418 66.1406 323.141 67.6302 319.057 69.4531C316.195 70.4583 312.524 72.1146 310.142 73.9739C306.132 76.3385 300.92 80.1354 303.202 84.2031C305.385 88.1093 311.714 86.6718 315.845 85.8125C317.151 85.5416 318.357 85.3333 320.321 84.9323C325.005 84.7187 329.679 83.7812 334.201 82.9948C343.544 81.3698 357.007 78.4739 365.263 73.7448C366.511 73.3385 367.77 72.8281 368.903 72.1875C369.19 72.8125 369.723 73.927 370.078 74.5156C370.161 74.6562 370.229 74.8229 370.391 74.8906C370.532 74.9479 371.107 74.8541 371.498 74.6614C371.472 74.8437 371.446 75.0364 371.488 75.2083C371.556 75.526 371.822 75.7448 372.141 75.7864C373.102 75.8385 372.997 74.6198 373.049 73.9687C373.081 73.5833 373.112 73.2031 373.138 72.8177C373.566 71.9479 373.817 70.9583 374.021 70.0677C375.394 64.0312 374.7 57.6406 374.606 53.9843C374.532 50.9896 374.595 47.9948 374.381 45C373.723 35.7604 370.37 17.7291 370.02 14.7656C369.603 11.2708 368.898 3.71351 365.571 2.6458Z" fill="black"/>
</g>
</g>
</g>
</svg>
