<svg width="21" height="21" viewBox="0 0 21 21" fill="none" xmlns="http://www.w3.org/2000/svg">
<path d="M17.0625 2.625H15.0938V1.96875C15.0938 1.7947 15.0246 1.62778 14.9015 1.50471C14.7785 1.38164 14.6115 1.3125 14.4375 1.3125C14.2635 1.3125 14.0965 1.38164 13.9735 1.50471C13.8504 1.62778 13.7812 1.7947 13.7812 1.96875V2.625H7.21875V1.96875C7.21875 1.7947 7.14961 1.62778 7.02654 1.50471C6.90347 1.38164 6.73655 1.3125 6.5625 1.3125C6.38845 1.3125 6.22153 1.38164 6.09846 1.50471C5.97539 1.62778 5.90625 1.7947 5.90625 1.96875V2.625H3.9375C3.5894 2.625 3.25556 2.76328 3.00942 3.00942C2.76328 3.25556 2.625 3.5894 2.625 3.9375V17.0625C2.625 17.4106 2.76328 17.7444 3.00942 17.9906C3.25556 18.2367 3.5894 18.375 3.9375 18.375H17.0625C17.4106 18.375 17.7444 18.2367 17.9906 17.9906C18.2367 17.7444 18.375 17.4106 18.375 17.0625V3.9375C18.375 3.5894 18.2367 3.25556 17.9906 3.00942C17.7444 2.76328 17.4106 2.625 17.0625 2.625ZM13.9174 10.9643L9.97992 14.9018C9.91897 14.9628 9.8466 15.0112 9.76693 15.0442C9.68726 15.0773 9.60187 15.0943 9.51562 15.0943C9.42938 15.0943 9.34399 15.0773 9.26432 15.0442C9.18465 15.0112 9.11228 14.9628 9.05133 14.9018L7.08258 12.933C6.95944 12.8099 6.89026 12.6429 6.89026 12.4688C6.89026 12.2946 6.95944 12.1276 7.08258 12.0045C7.20572 11.8813 7.37273 11.8121 7.54688 11.8121C7.72102 11.8121 7.88803 11.8813 8.01117 12.0045L9.51562 13.5097L12.9888 10.0357C13.0498 9.97473 13.1222 9.92636 13.2018 9.89337C13.2815 9.86037 13.3669 9.84338 13.4531 9.84338C13.5394 9.84338 13.6247 9.86037 13.7044 9.89337C13.7841 9.92636 13.8565 9.97473 13.9174 10.0357C13.9784 10.0967 14.0268 10.1691 14.0598 10.2487C14.0928 10.3284 14.1097 10.4138 14.1097 10.5C14.1097 10.5862 14.0928 10.6716 14.0598 10.7513C14.0268 10.8309 13.9784 10.9033 13.9174 10.9643ZM3.9375 6.5625V3.9375H5.90625V4.59375C5.90625 4.7678 5.97539 4.93472 6.09846 5.05779C6.22153 5.18086 6.38845 5.25 6.5625 5.25C6.73655 5.25 6.90347 5.18086 7.02654 5.05779C7.14961 4.93472 7.21875 4.7678 7.21875 4.59375V3.9375H13.7812V4.59375C13.7812 4.7678 13.8504 4.93472 13.9735 5.05779C14.0965 5.18086 14.2635 5.25 14.4375 5.25C14.6115 5.25 14.7785 5.18086 14.9015 5.05779C15.0246 4.93472 15.0938 4.7678 15.0938 4.59375V3.9375H17.0625V6.5625H3.9375Z" fill="#002C45"/>
</svg>
