<svg width="17" height="22" viewBox="0 0 17 22" fill="none" xmlns="http://www.w3.org/2000/svg">
<g clip-path="url(#clip0_44_111)">
<path d="M8.64772 0C6.55999 0.0029013 4.55856 0.873027 3.08231 2.41957C1.60606 3.96612 0.77549 6.06286 0.77272 8.25C0.77272 14.1728 8.1096 21.5909 8.42131 21.9038C8.48195 21.9655 8.56317 22 8.64772 22C8.73227 22 8.81349 21.9655 8.87413 21.9038C9.18584 21.5909 16.5227 14.1728 16.5227 8.25C16.52 6.06286 15.6894 3.96612 14.2131 2.41957C12.7369 0.873027 10.7354 0.0029013 8.64772 0ZM8.64772 12.0313C7.93385 12.0313 7.23602 11.8095 6.64246 11.394C6.0489 10.9785 5.58628 10.388 5.31309 9.69702C5.03991 9.00609 4.96843 8.24581 5.1077 7.51232C5.24697 6.77882 5.59073 6.10507 6.09551 5.57625C6.60029 5.04744 7.24342 4.68731 7.94357 4.54141C8.64372 4.39551 9.36944 4.47039 10.029 4.75658C10.6885 5.04278 11.2522 5.52743 11.6488 6.14925C12.0454 6.77107 12.2571 7.50214 12.2571 8.25C12.2565 9.25267 11.8761 10.2141 11.1993 10.9231C10.5225 11.6321 9.60481 12.0307 8.64772 12.0313Z" fill="#002C45"/>
</g>
<defs>
<clipPath id="clip0_44_111">
<rect width="17" height="22" fill="white"/>
</clipPath>
</defs>
</svg>
