<svg width="18" height="19" viewBox="0 0 18 19" fill="none" xmlns="http://www.w3.org/2000/svg">
<path d="M8.53125 0.96875C6.84393 0.96875 5.1945 1.4691 3.79155 2.40652C2.38859 3.34395 1.29512 4.67635 0.649407 6.23523C0.00369646 7.79411 -0.165251 9.50946 0.163929 11.1644C0.49311 12.8193 1.30563 14.3394 2.49875 15.5325C3.69187 16.7256 5.21199 17.5381 6.86689 17.8673C8.52179 18.1965 10.2371 18.0276 11.796 17.3818C13.3549 16.7361 14.6873 15.6427 15.6247 14.2397C16.5622 12.8368 17.0625 11.1873 17.0625 9.5C17.0601 7.2381 16.1605 5.06954 14.5611 3.47013C12.9617 1.87073 10.7931 0.971139 8.53125 0.96875ZM13.125 10.1562H8.53125C8.35721 10.1562 8.19029 10.0871 8.06721 9.96404C7.94414 9.84097 7.875 9.67405 7.875 9.5V4.90625C7.875 4.7322 7.94414 4.56528 8.06721 4.44221C8.19029 4.31914 8.35721 4.25 8.53125 4.25C8.7053 4.25 8.87222 4.31914 8.99529 4.44221C9.11836 4.56528 9.1875 4.7322 9.1875 4.90625V8.84375H13.125C13.2991 8.84375 13.466 8.91289 13.589 9.03596C13.7121 9.15903 13.7813 9.32595 13.7813 9.5C13.7813 9.67405 13.7121 9.84097 13.589 9.96404C13.466 10.0871 13.2991 10.1562 13.125 10.1562Z" fill="#002C45"/>
</svg>
